# xmcd
#
# Track frame offsets: 
#        150
#        20882
#        36373
#        56195
#        70617
#        92355
#        105369
#        121937
#        137686
#        154160
#
# Disc length: 2384 seconds
#
# Revision: 0
# Processed by: cddbd v1.5.2PL0 Copyright (c) Steve Scherf et al.
# Submitted via: ExactAudioCopy v0.99pb5
#
DISCID=80094e0a
DTITLE=The Colwell Brothers - New Shoes-Old Blues
DYEAR=2010
DGENRE=Blues
TTITLE0=Lula Lula Don't You Go To Bingo
TTITLE1=America (Is Melting Down)
TTITLE2=Settle Down
TTITLE3=450 Lb. Woman
TTITLE4=Good Man Gone
TTITLE5=New Shoes, Old Blues
TTITLE6=Way Past Time
TTITLE7=You Can Always Get Love From Me
TTITLE8=My Eyes Keep Me In Trouble
TTITLE9=I Don't Want To Be Free
EXTD=
EXTT0=
EXTT1=
EXTT2=
EXTT3=
EXTT4=
EXTT5=
EXTT6=
EXTT7=
EXTT8=
EXTT9=
PLAYORDER=
